Patient4_TMGait_0pt6_02_left_07_GRF.mot
version=1
nRows=39
nColumns=19
inDegrees=no
endheader
time	F1x	F1y	F1z	M1x	M1y	M1z	F2x	F2y	F2z	M2x	M2y	M2z	EC1x	EC1y	EC1z	EC2x	EC2y	EC2z
8.44	3.5159	-5.0645	-4.928	2.8597	3.0632	-9.0556	-30.8534	732.1356	-63.3602	277.6641	69	708.8094	-0.0592	0.0182	-0.0073	-0.0462	0.0165	0.9585
8.4529	2.4416	-3.5449	-2.8556	2.1403	1.7235	-5.8267	-29.3712	734.0183	-60.0964	279.1886	66.3132	708.8372	-0.0592	0.0182	-0.0073	-0.0462	0.0165	0.9585
8.4657	1.5274	-2.2099	-1.1121	1.5129	0.61733	-3.0157	-27.5213	738.1925	-56.9535	281.6269	63.4128	710.0662	-0.0592	0.0182	-0.0073	-0.0462	0.0165	0.9585
8.4786	0.81386	-1.1322	0.21009	1.0173	-0.21065	-0.78705	-25.3352	744.7338	-54.1098	284.9793	60.4325	712.6012	-0.0592	0.0182	-0.0073	-0.0462	0.0165	0.9585
8.4914	0.3	-0.33123	1.112	0.65884	-0.76582	0.82521	-22.8674	753.2456	-51.6598	289.063	57.4818	716.211	-0.0592	0.0182	-0.0073	-0.0462	0.0165	0.9585
8.5043	-0.047833	0.21288	1.6658	0.42476	-1.1055	1.8907	-20.1696	762.8796	-49.6498	293.5145	54.6423	720.2882	-0.0592	0.0182	-0.0073	-0.0462	0.0165	0.9585
8.5171	-0.27256	0.53046	1.9523	0.29568	-1.2835	2.512	-17.2778	772.4418	-48.1269	297.8305	52.0005	723.9099	-0.0592	0.0182	-0.0073	-0.0462	0.0165	0.9585
8.53	-0.41347	0.63981	2.0716	0.25648	-1.3709	2.7767	-14.2066	780.5782	-47.1007	301.4475	49.599	725.9937	-0.0592	0.0182	-0.0073	-0.0462	0.0165	0.9585
8.5429	-0.51762	0.54818	2.0929	0.29724	-1.4156	2.7482	-10.9456	785.9772	-46.5778	303.8298	47.469	725.4818	-0.0592	0.0182	-0.0073	-0.0462	0.0165	0.9585
8.5557	-0.60663	0.22968	2.0918	0.42234	-1.47	2.4226	-7.4924	787.669	-46.5014	304.5913	45.5902	721.6149	-0.0592	0.0182	-0.0073	-0.0462	0.0165	0.9585
8.5686	-0.70932	-0.36932	2.0957	0.6468	-1.5496	1.7589	-3.8539	785.2061	-46.7771	303.5655	43.909	714.0871	-0.0592	0.0182	-0.0073	-0.0462	0.0165	0.9585
8.5814	-0.81382	-1.3187	2.1371	0.9946	-1.6741	0.68871	-0.071914	778.7519	-47.2926	300.8349	42.3628	703.1334	-0.0592	0.0182	-0.0073	-0.0462	0.0165	0.9585
8.5943	-0.89078	-2.6661	2.2042	1.4835	-1.816	-0.8344	3.7775	769.015	-47.9546	296.7009	40.9173	689.4674	-0.0592	0.0182	-0.0073	-0.0462	0.0165	0.9585
8.6071	-0.87537	-4.4233	2.2933	2.1188	-1.9432	-2.8129	7.5723	757.0848	-48.7042	291.6164	39.5812	674.1239	-0.0592	0.0182	-0.0073	-0.0462	0.0165	0.9585
8.62	-0.66942	-6.4978	2.3519	2.8694	-1.9609	-5.1427	11.1934	744.282	-49.5372	286.118	38.4047	658.3215	-0.0592	0.0182	-0.0073	-0.0462	0.0165	0.9585
8.6329	-0.15465	-8.6389	2.3214	3.6482	-1.7573	-7.5589	14.5466	731.9842	-50.4765	280.7593	37.4461	643.2932	-0.0592	0.0182	-0.0073	-0.0462	0.0165	0.9585
8.6457	0.81879	-10.3819	2.1062	4.2792	-1.1738	-9.5696	17.5594	721.4533	-51.5672	276.0436	36.7735	630.1487	-0.0592	0.0182	-0.0073	-0.0462	0.0165	0.9585
8.6586	2.3898	-10.9729	1.6087	4.4751	-0.051763	-10.3365	20.2125	713.6613	-52.8336	272.3582	36.4167	619.7213	-0.0592	0.0182	-0.0073	-0.0462	0.0165	0.9585
8.6714	4.6815	-9.2974	0.70641	3.8133	1.7803	-8.6417	22.5109	709.1104	-54.2817	269.9078	36.3759	612.4191	-0.0592	0.0182	-0.0073	-0.0462	0.0165	0.9585
8.6843	7.7007	-3.8476	-0.69966	1.7287	4.4306	-2.8312	24.5095	707.7108	-55.8703	268.6706	36.596	608.1125	-0.0592	0.0182	-0.0073	-0.0462	0.0165	0.9585
8.6971	11.2955	7.1932	-2.6749	-2.4564	7.9053	9.0747	26.305	708.7681	-57.5078	268.3915	36.9656	606.1555	-0.0592	0.0182	-0.0073	-0.0462	0.0165	0.9585
8.71	15.0073	25.7449	-5.1838	-9.4504	11.991	29.1835	28.0046	711.0097	-59.0328	268.5977	37.3111	605.4116	-0.0592	0.0182	-0.0073	-0.0462	0.0165	0.9585
8.7229	17.9659	53.4177	-8.0353	-19.8375	16.1467	59.2633	29.7189	712.688	-60.2222	268.6407	37.4104	604.357	-0.0592	0.0182	-0.0073	-0.0462	0.0165	0.9585
8.7357	18.7472	90.8194	-10.7731	-33.8166	19.3374	100.0074	31.5239	711.7371	-60.8114	267.7573	37.022	601.2268	-0.0592	0.0182	-0.0073	-0.0462	0.0165	0.9585
8.7486	15.6089	136.9101	-12.6037	-50.9618	20.0643	150.3464	33.4619	705.9882	-60.5186	265.1509	35.9088	594.1904	-0.0592	0.0182	-0.0073	-0.0462	0.0165	0.9585
8.7614	8.0873	189.5593	-12.6916	-70.421	17.2685	208.0102	35.4996	693.4402	-59.0788	260.0902	33.8787	581.5966	-0.0592	0.0182	-0.0073	-0.0462	0.0165	0.9585
8.7743	-2.1329	245.8891	-10.4768	-91.0444	10.9476	269.7538	37.5181	672.4559	-56.2946	251.9773	30.8273	562.1213	-0.0592	0.0182	-0.0073	-0.0462	0.0165	0.9585
8.7871	-12.972	301.1683	-5.3586	-111.0436	1.2679	330.1123	39.3198	641.8432	-52.1161	240.3729	26.8014	534.8419	-0.0592	0.0182	-0.0073	-0.0462	0.0165	0.9585
8.8	-22.6808	350.9913	2.2303	-128.8274	-10.5902	383.9309	40.6474	601.0362	-46.6276	225.0635	21.9737	499.3624	-0.0592	0.0182	-0.0073	-0.0462	0.0165	0.9585
8.8129	-30.2506	393.679	11.2051	-143.8433	-23.0191	429.19	41.1945	550.3876	-40.0857	206.1639	16.6605	456.0443	-0.0592	0.0182	-0.0073	-0.0462	0.0165	0.9585
8.8257	-35.5355	430.3166	20.3922	-156.5618	-34.6749	467.0077	40.687	491.2786	-32.92	184.1562	11.289	406.0903	-0.0592	0.0182	-0.0073	-0.0462	0.0165	0.9585
8.8386	-38.7447	463.2961	28.8417	-167.9251	-44.6156	499.9437	38.9201	425.9353	-25.6384	159.834	6.3104	351.3627	-0.0592	0.0182	-0.0073	-0.0462	0.0165	0.9585
8.8514	-40.227	495.0438	35.8621	-178.8676	-52.2504	530.6333	35.8062	357.219	-18.738	134.2294	2.1216	294.2086	-0.0592	0.0182	-0.0073	-0.0462	0.0165	0.9585
8.8643	-40.3191	527.3184	41.2106	-190.0483	-57.4705	561.005	31.4505	288.3617	-12.6333	108.5258	-1.0114	237.2349	-0.0592	0.0182	-0.0073	-0.0462	0.0165	0.9585
8.8771	-39.3431	561.0954	44.9487	-201.8114	-60.4952	592.1629	26.1249	222.6955	-7.6141	83.9586	-2.9769	183.1167	-0.0592	0.0182	-0.0073	-0.0462	0.0165	0.9585
8.89	-37.5852	596.5361	47.4568	-214.176	-61.8631	624.3948	20.3342	163.2765	-3.7963	61.6748	-3.8767	134.2684	-0.0592	0.0182	-0.0073	-0.0462	0.0165	0.9585
8.9029	-35.2723	632.9016	49.2483	-226.8344	-62.2303	657.0238	14.6758	112.4374	-1.1527	42.5592	-3.9489	92.5311	-0.0592	0.0182	-0.0073	-0.0462	0.0165	0.9585
8.9157	-32.6815	668.7829	50.8228	-239.2464	-62.2424	688.7109	9.6735	71.3729	0.47529	27.0814	-3.4943	58.8247	-0.0592	0.0182	-0.0073	-0.0462	0.0165	0.9585
8.9286	-29.988	702.5138	52.4624	-250.811	-62.2843	717.8123	5.6044	40.1601	1.3069	15.2911	-2.7628	33.1895	-0.0592	0.0182	-0.0073	-0.0462	0.0165	0.9585
